<svg xmlns="http://www.w3.org/2000/svg" width="17.02" height="16.589" viewBox="0 0 17.02 16.589">
  <path id="Icon_awesome-arrow-right" data-name="Icon awesome-arrow-right" d="M7.236,3.758l.843-.843a.908.908,0,0,1,1.288,0L16.752,10.3a.908.908,0,0,1,0,1.288L9.368,18.968a.908.908,0,0,1-1.288,0l-.843-.843a.913.913,0,0,1,.015-1.3l4.577-4.361H.912A.909.909,0,0,1,0,11.549V10.334a.909.909,0,0,1,.912-.912H11.829L7.252,5.061A.906.906,0,0,1,7.236,3.758Z" transform="translate(0 -2.647)" fill="#fff"/>
</svg>
