<svg xmlns="http://www.w3.org/2000/svg" width="36" height="36" viewBox="0 0 36 36">
  <path id="Icon_zocial-wordpress" data-name="Icon zocial-wordpress" d="M0,18.036A17.633,17.633,0,0,1,2.412,9,17.872,17.872,0,0,1,8.964,2.448,17.633,17.633,0,0,1,18,.036a17.633,17.633,0,0,1,9.036,2.412A17.872,17.872,0,0,1,33.588,9,17.633,17.633,0,0,1,36,18.036a17.633,17.633,0,0,1-2.412,9.036,17.872,17.872,0,0,1-6.552,6.552A17.633,17.633,0,0,1,18,36.036a17.633,17.633,0,0,1-9.036-2.412,17.872,17.872,0,0,1-6.552-6.552A17.633,17.633,0,0,1,0,18.036Zm1.4,0a16.567,16.567,0,0,0,9.36,14.94L2.844,11.268A16.324,16.324,0,0,0,1.4,18.036ZM4.1,8.928h1.08q1.728,0,4.428-.216a.617.617,0,0,1,.63.288.728.728,0,0,1,.054.684.621.621,0,0,1-.576.4l-1.908.18L13.86,28.224,17.5,17.352,14.9,10.26q-.864-.108-1.728-.18a.621.621,0,0,1-.576-.4A.728.728,0,0,1,12.654,9a.617.617,0,0,1,.63-.288l4.356.216q1.764,0,4.428-.216A.617.617,0,0,1,22.7,9a.728.728,0,0,1,.054.684.621.621,0,0,1-.576.4l-1.872.18L26.28,28.116l1.656-5.544a25.736,25.736,0,0,0,1.3-5.364,8.792,8.792,0,0,0-1.4-4.608q-.072-.108-.45-.756T26.892,11q-.108-.2-.324-.684a4.149,4.149,0,0,1-.288-.846,3.848,3.848,0,0,1-.072-.756,2.962,2.962,0,0,1,.81-2.07,2.605,2.605,0,0,1,2-.882.492.492,0,0,1,.108.018.492.492,0,0,0,.108.018A15.989,15.989,0,0,0,18,1.44a16.266,16.266,0,0,0-7.956,2.016A16.474,16.474,0,0,0,4.1,8.928ZM13.32,33.984a16.7,16.7,0,0,0,4.68.648,16.293,16.293,0,0,0,5.508-.936L23.4,33.48l-5.112-14ZM26.352,32.4A16.6,16.6,0,0,0,34.6,18.036,16.134,16.134,0,0,0,32.58,10.08a12.036,12.036,0,0,1,.108,1.692,19.354,19.354,0,0,1-1.26,5.94Z" transform="translate(0 -0.036)" fill="#fff"/>
</svg>
