<svg xmlns="http://www.w3.org/2000/svg" width="377" height="48.2" viewBox="0 0 377 48.2">
  <g id="Raggruppa_2" data-name="Raggruppa 2" transform="translate(-109.351 -284.381)">
    <path id="Tracciato_1" data-name="Tracciato 1" d="M134.494,284.381q10.89,0,18.135,6.9a22.874,22.874,0,0,1,7.244,17.289,22.505,22.505,0,0,1-7.311,17.2q-7.312,6.813-18.437,6.812a24.5,24.5,0,0,1-17.7-6.812,22.707,22.707,0,0,1-7.076-17.07,23.218,23.218,0,0,1,7.126-17.424Q123.6,284.381,134.494,284.381Zm.269,6.391a18.237,18.237,0,0,0-13.258,5.045,17.189,17.189,0,0,0-5.192,12.883,16.875,16.875,0,0,0,5.209,12.647,19.338,19.338,0,0,0,26.162-.1,17.2,17.2,0,0,0,5.259-12.815,16.805,16.805,0,0,0-5.259-12.563A17.861,17.861,0,0,0,134.763,290.772Z" fill="#161615"/>
    <path id="Tracciato_2" data-name="Tracciato 2" d="M245.05,285.485h2.937a1.727,1.727,0,0,1,1.727,1.727v43.536a1.727,1.727,0,0,1-1.727,1.727h-3.27a1.728,1.728,0,0,1-1.3-.595l-27.868-32.1a1.727,1.727,0,0,0-3.032,1.132v29.839a1.727,1.727,0,0,1-1.727,1.727h-2.87a1.727,1.727,0,0,1-1.727-1.727V287.212a1.727,1.727,0,0,1,1.727-1.727h2.934a1.727,1.727,0,0,1,1.3.595l28.138,32.411a1.727,1.727,0,0,0,3.031-1.132V287.212A1.727,1.727,0,0,1,245.05,285.485Z" transform="translate(-37.841 -0.431)" fill="#161615"/>
    <path id="Tracciato_3" data-name="Tracciato 3" d="M295.209,285.485h24.5a1.07,1.07,0,0,1,1.07,1.07V290.4a1.07,1.07,0,0,1-1.07,1.07H301.936a1.07,1.07,0,0,0-1.07,1.07v12.188a1.07,1.07,0,0,0,1.07,1.07h17.1a1.07,1.07,0,0,1,1.07,1.07v3.88a1.071,1.071,0,0,1-1.07,1.07h-17.1a1.07,1.07,0,0,0-1.07,1.07V325.35a1.07,1.07,0,0,0,1.07,1.07h18.412a1.07,1.07,0,0,1,1.07,1.07v3.847a1.07,1.07,0,0,1-1.07,1.07H295.209a1.07,1.07,0,0,1-1.07-1.07V286.555A1.07,1.07,0,0,1,295.209,285.485Z" transform="translate(-72.208 -0.431)" fill="#161615"/>
    <g id="Raggruppa_1" data-name="Raggruppa 1" transform="translate(278.171 285.02)">
      <path id="Tracciato_4" data-name="Tracciato 4" d="M407.882,346.151l-17.441-21.1-3.554,4.368-.435.525,14.432,17.564a1.071,1.071,0,0,0,.827.391h5.347A1.07,1.07,0,0,0,407.882,346.151Z" transform="translate(-386.452 -300.914)" fill="#161615"/>
      <path id="Tracciato_5" data-name="Tracciato 5" d="M386.938,302.367l3.548,4.226,16.1-19.41a1.07,1.07,0,0,0-.824-1.753h-5.344a1.071,1.071,0,0,0-.829.393l-13.082,16.019Z" transform="translate(-386.473 -285.43)" fill="#161615"/>
    </g>
    <path id="Tracciato_6" data-name="Tracciato 6" d="M366.418,313.939,351.61,331.795a1.729,1.729,0,0,1-1.329.624h-3.726a1.727,1.727,0,0,1-1.328-2.831l16.953-20.394a1.728,1.728,0,0,0,0-2.206l-15.518-18.729a1.727,1.727,0,0,1,1.33-2.829h3.721a1.725,1.725,0,0,1,1.334.631l13.4,16.307,3.849,4.584a1.728,1.728,0,0,1,.017,2.2Z" transform="translate(-92.014 -0.41)" fill="#0090df"/>
    <path id="Tracciato_7" data-name="Tracciato 7" d="M427.228,285.375h37.112a1.07,1.07,0,0,1,1.07,1.07v3.847a1.071,1.071,0,0,1-1.07,1.07H450.1a1.07,1.07,0,0,0-1.07,1.07v38.93a1.07,1.07,0,0,1-1.07,1.07H443.34a1.07,1.07,0,0,1-1.07-1.07v-38.93a1.07,1.07,0,0,0-1.07-1.07H427.228a1.071,1.071,0,0,1-1.07-1.07v-3.847A1.07,1.07,0,0,1,427.228,285.375Z" transform="translate(-123.796 -0.388)" fill="#161615"/>
    <path id="Tracciato_8" data-name="Tracciato 8" d="M558.613,285.485h4.4a1.07,1.07,0,0,1,.992,1.469l-18.136,45.051a1.07,1.07,0,0,1-.993.67h-.032a1.071,1.071,0,0,1-.993-.671l-14.106-35.082a1.07,1.07,0,0,0-1.984,0L513.5,332.009a1.07,1.07,0,0,1-.992.667h0a1.07,1.07,0,0,1-.993-.671l-18.08-45.051a1.07,1.07,0,0,1,.993-1.469H498.9a1.07,1.07,0,0,1,.994.673l11.69,29.242a1.07,1.07,0,0,0,1.986,0l11.77-29.246a1.069,1.069,0,0,1,.992-.671h4.915a1.069,1.069,0,0,1,.992.669L544.066,315.4a1.07,1.07,0,0,0,1.987-.007l11.565-29.228A1.07,1.07,0,0,1,558.613,285.485Z" transform="translate(-150.056 -0.431)" fill="#161615"/>
    <path id="Tracciato_9" data-name="Tracciato 9" d="M619.911,285.485h24.5a1.07,1.07,0,0,1,1.07,1.07V290.4a1.07,1.07,0,0,1-1.07,1.07H626.638a1.07,1.07,0,0,0-1.07,1.07v12.188a1.07,1.07,0,0,0,1.07,1.07h17.1a1.07,1.07,0,0,1,1.07,1.07v3.88a1.071,1.071,0,0,1-1.07,1.07h-17.1a1.07,1.07,0,0,0-1.07,1.07V325.35a1.07,1.07,0,0,0,1.07,1.07H645.05a1.07,1.07,0,0,1,1.07,1.07v3.847a1.07,1.07,0,0,1-1.07,1.07H619.911a1.07,1.07,0,0,1-1.07-1.07V286.555A1.07,1.07,0,0,1,619.911,285.485Z" transform="translate(-199.089 -0.431)" fill="#161615"/>
    <path id="Tracciato_10" data-name="Tracciato 10" d="M691.286,332.474H676.446a1.07,1.07,0,0,1-1.07-1.07v-44.85a1.07,1.07,0,0,1,1.07-1.07h11.24a21.438,21.438,0,0,1,9.082,1.564,11.243,11.243,0,0,1,6.694,10.646,9.705,9.705,0,0,1-4.778,8.693,1.066,1.066,0,0,0,.2,1.91,13.568,13.568,0,0,1,5.6,3.559,11.042,11.042,0,0,1,3.044,7.8,11.467,11.467,0,0,1-1.85,6.425,13.46,13.46,0,0,1-5.433,4.608A20.039,20.039,0,0,1,691.286,332.474Zm-3.4-41h-4.715a1.07,1.07,0,0,0-1.07,1.07v11.987a1.07,1.07,0,0,0,1.07,1.07h3.4q5.38,0,7.651-2.052a6.83,6.83,0,0,0,2.271-5.314Q696.5,291.473,687.889,291.472Zm.5,20.115h-5.219a1.07,1.07,0,0,0-1.07,1.07v12.76a1.07,1.07,0,0,0,1.07,1.07h5.556q5.516,0,7.484-.858a7.118,7.118,0,0,0,3.162-2.674,6.974,6.974,0,0,0,1.194-3.9,6.665,6.665,0,0,0-1.262-3.936,7.473,7.473,0,0,0-3.582-2.657A22.428,22.428,0,0,0,688.393,311.587Z" transform="translate(-221.181 -0.431)" fill="#161615"/>
  </g>
</svg>
