<svg xmlns="http://www.w3.org/2000/svg" width="30.885" height="29.618" viewBox="0 0 30.885 29.618">
  <g id="Icon_feather-shopping-cart" data-name="Icon feather-shopping-cart" transform="translate(1.5 1.5)">
    <path id="Tracciato_1775" data-name="Tracciato 1775" d="M14.535,31.268A1.268,1.268,0,1,1,13.268,30,1.268,1.268,0,0,1,14.535,31.268Z" transform="translate(-3.127 -5.917)" fill="none" stroke="#fff" stroke-linecap="round" stroke-linejoin="round" stroke-width="3"/>
    <path id="Tracciato_1776" data-name="Tracciato 1776" d="M31.035,31.268A1.268,1.268,0,1,1,29.768,30,1.268,1.268,0,0,1,31.035,31.268Z" transform="translate(-5.685 -5.917)" fill="none" stroke="#fff" stroke-linecap="round" stroke-linejoin="round" stroke-width="3"/>
    <path id="Tracciato_1777" data-name="Tracciato 1777" d="M1.5,1.5H6.57l3.4,16.972A2.535,2.535,0,0,0,12.5,20.513h12.32a2.535,2.535,0,0,0,2.535-2.041L29.385,7.838H7.838" transform="translate(-1.5 -1.5)" fill="none" stroke="#fff" stroke-linecap="round" stroke-linejoin="round" stroke-width="3"/>
  </g>
</svg>
